# xmcd
#
# Track frame offsets: 
#        150
#        16937
#        40637
#        63437
#        81925
#        100675
#        121562
#        135512
#        156250
#        169812
#        187287
#        209535
#        238787
#        257762
#
# Disc length: 3705 seconds
#
# Revision: 5
# Processed by: cddbd v1.5.2PL0 Copyright (c) Steve Scherf et al.
# Submitted via: ExactAudioCopy v0.99pb5
#
DISCID=b90e770e
DTITLE=Hamburg Blues Band - Real Stuff
DYEAR=1996
DGENRE=Blues
TTITLE0=Rattlesnake Shake
TTITLE1=Need Your Lovin'
TTITLE2=Make Love Strong
TTITLE3=Madman
TTITLE4=Real Stuff
TTITLE5=Signs and Wonders
TTITLE6=Give Power To The Blues
TTITLE7=Wrong Side Of Town
TTITLE8=Ain't Nothin' Shakin'
TTITLE9=Do The Do
TTITLE10=Rockin' Chair
TTITLE11=On Your Way Down
TTITLE12=Midnight Lies
TTITLE13=Got What I Want
EXTD=
EXTT0=
EXTT1=
EXTT2=
EXTT3=
EXTT4=
EXTT5=
EXTT6=
EXTT7=
EXTT8=
EXTT9=
EXTT10=
EXTT11=
EXTT12=
EXTT13=
PLAYORDER=
